# xmcd
#
# Track frame offsets:
#	150
#	11662
#	24812
#	36940
#	50447
#	64277
#	77717
#	88597
#	102502
#	115995
#	128197
#	138335
#	148690
#	163152
#	176020
#	189280
#	201575
#	212090
#	222417
#	234130
#
# Disc length: 3303 seconds
#
# Revision: 0
# Processed by: cddbd v1.4PL0 Copyright (c) Steve Scherf et al.
# Submitted via: MusicWizard 6.0.1
#
DISCID=220ce514
DTITLE=Various Artist - Blues Essentials
DYEAR=1900
DGENRE=Blues
TTITLE0=John Lee Hooker - Boom Boom
TTITLE1=Elmore James - Dust My Broom
TTITLE2=Jimmy Reed - Honest I Do
TTITLE3=Walter Horton - Easy
TTITLE4=Lightnin' Hopkins - Mojo Hand
TTITLE5=Howlin' Wolf - Everybody's In The Mood
TTITLE6=Champion Jack Dupree - Shake Baby Shake
TTITLE7=Jimmy Reed - You Don't Have To Go
TTITLE8=Eddie Taylor - Big Town Playboy
TTITLE9=Billy Boy Arnold - I Wish You Would
TTITLE10=John Lee Hooker - Dimples
TTITLE11=Memphis Slim - The Comeback
TTITLE12=Jimmy Reed - Honey, Where You Going?
TTITLE13=Otis Rush - Three Times A Fool
TTITLE14=Junior Parker - Feelin' Good
TTITLE15=John Lee Hooker - I'm In The Mood
TTITLE16=Elmore James - Done Somebody Wrong
TTITLE17=Junior Wells - Messin' With The Kid
TTITLE18=Arthur "Big Boy" Crudup - Mean Ol' Frisco
TTITLE19=James Cotton - Cotton Crop Blues
EXTD=
EXTT0=
EXTT1=
EXTT2=
EXTT3=
EXTT4=
EXTT5=
EXTT6=
EXTT7=
EXTT8=
EXTT9=
EXTT10=
EXTT11=
EXTT12=
EXTT13=
EXTT14=
EXTT15=
EXTT16=
EXTT17=
EXTT18=
EXTT19=
PLAYORDER=
